<?xml version="1.0" encoding="UTF-8"?>
<svg id="Layer_1" xmlns="http://www.w3.org/2000/svg" version="1.1" viewBox="0 0 720.2 404.5">
  <!-- Generator: Adobe Illustrator 29.6.1, SVG Export Plug-In . SVG Version: 2.1.1 Build 9)  -->
  <defs>
    <style>
      .st0 {
        fill: #7d8ca1;
      }

      .st1 {
        fill: #c5bcc8;
      }

      .st2 {
        fill: #cee4e9;
      }

      .st3 {
        fill: #698ba2;
      }

      .st4 {
        fill: #695e7c;
      }

      .st5 {
        fill: #1a3158;
      }

      .st6 {
        fill: #8097aa;
      }

      .st7 {
        fill: #9296a9;
      }

      .st8 {
        fill: #183057;
      }

      .st9 {
        fill: #4d5676;
      }

      .st10 {
        fill: #8691a5;
      }

      .st11 {
        fill: #7c7e95;
      }

      .st12 {
        fill: #a9a7b8;
      }

      .st13 {
        fill: #cccbd5;
      }

      .st14 {
        fill: #1b3259;
      }

      .st15 {
        fill: #667590;
      }

      .st16 {
        fill: #9e9daf;
      }

      .st17 {
        fill: #ccc0cb;
      }

      .st18 {
        fill: #ece1e6;
      }

      .st19 {
        fill: #8b94a8;
      }

      .st20 {
        fill: #a1b2c1;
      }

      .st21 {
        fill: #fefefe;
      }

      .st22 {
        fill: #807d95;
      }

      .st23 {
        fill: #d3e9ed;
      }

      .st24 {
        fill: #d2e8ec;
      }

      .st25 {
        fill: #5a6b88;
      }

      .st26 {
        fill: #1a3258;
      }

      .st27 {
        fill: #7e8ca1;
      }

      .st28 {
        fill: #c3d8e0;
      }

      .st29 {
        fill: #374c6d;
      }

      .st30 {
        fill: #a6b9c7;
      }

      .st31 {
        fill: #c3d0d9;
      }

      .st32 {
        fill: #eadde4;
      }

      .st33 {
        fill: #9ab;
      }
    </style>
  </defs>
  <path class="st21" d="M361.1,0c.35.11.34.25,0,.4-.34.22-.68.42-1.05.58-.37.16-.71.28-1.07.32-13.61,1.36-25.9,2.64-39.37,5.68-32.99,7.44-68.78,20.59-93.18,43.86,26.29-16.88,57.28-24.56,88.08-27.21,29.52-2.54,61.34-.63,88.29,12.17,9.62,4.57,14.63,9.58,20.49,17.41,5.87-5.71,11.28-14.54,11.55-23.22.67-21.57-35.31-28.13-51.66-28.75l-.88-.84c-.35-.11-.34-.25,0-.4h337.91v314.17c-.11.35-.25.34-.4,0l-.92-.54c-3.38-10.55-19.13-6.62-17.66,4.56.4,7.51.59,15.01.57,22.5-.09,1.72-.57,5.13-2.49,5.45-19.5.89-40.74,1.24-60.26.1-2.21-1.32-2.19-7.22-2.13-9.6.68-7.65.56-15.2-.35-22.66-1.48-8.67-15.76-8.72-17.11.22-1,6.6-.98,13.83-.93,20.63.65,19.3.81,38.59.5,57.88-.33,14.19,19.16,13.71,18.12-.31-.3-8.12-.31-16.22-.03-24.3.26-2.13,1.05-4.14,3.45-4.36,15.26.13,30.53.02,45.8-.33,1.35,0,12.39.1,13.67.92,1.58,1.01,1.94,8.7,1.84,10.68-.75,7.12-.79,14.2-.11,21.23,1.41,8.39,14.6,8.95,17.14,1.12l.91-.44c.11-.35.25-.34.4,0v7.59h-389.89c-.35-.11-.34-.25,0-.4l1.22-.82c5.11.06,10.22-.08,15.3-.42,10.54-1.21,11.37-15.13,1.11-17.11-10.47-.75-20.97-.63-31.5.36-13,.36-24.16-.91-23.57-17.27-.02-16.76.2-33.5.66-50.22-.12-6.41-2.33-11.02-9.42-11.17-8.84-.18-9.6,9.79-9.41,16.73.11,16.12.37,32.24.78,48.35-2.07,18.08,13.99,30.11,30.73,30.68l1.32.89c.35.11.34.25,0,.4h-139.16c-.35-.11-.34-.25,0-.4l1.05-.84c4.25-.39,8.49-.48,12.71-.27,15.61.54,15.57-18.67-.78-17.47-11.52.41-23.05.61-34.58.6-13.11-1.16-15.2-6.09-15.34-18.22-.2-16.4-.35-33.04.43-49.27,1.41-13.03-16.61-15.76-18.32-2.91-.33,10.5-.36,21.02-.08,31.54,0,0,0,8.38-.02,25.14-1.07,18.86,14.54,30.98,32.53,30.84l1.21.86c.35.11.34.25,0,.4H0v-9.19c.31-.62.58-.35.8.8l.88.5c3.08,9.29,17.3,8.48,17.8-2.42.33-7.21.46-14.21.39-21.49-.43-11.31-.73-22.6-.61-33.92.13-11.67,8.33-14.4,18.88-14.15,10.28.28,20.53.29,30.76.04,8.92.61,13.22,2.64,14.58,11.9,1.47,10.03-1.6,10.23-10.93,10.33-10.4-.25-20.67-.29-30.81-.11-13.18.28-13.16,16.5-.16,17.18,11.87.35,23.85.21,35.95-.43,6.47-.42,6.43,5.21,6.18,10.12-.45,6.01-.59,12.03-.41,18.05-.15,16.38,20.23,14.1,19.09-1.36-.34-15.94-.32-31.91.06-47.93-.3-10.58-1.45-18.33-9-26.08-5.66-5.81-11.56-8.28-19.63-8.75-15.34-.91-30.23-.81-45.56.19-11.65.75-24.68,10.4-26.54,22.33l-.9.87c-.14.84-.41,1.11-.8.8V0h361.1-.02Z"/>
  <path class="st8" d="M719.8,314.17c.33.33.3.85,0,1.2.35.18.26.49,0,.8.17.1.3.37.4.8v77.54l-.4,1.2c.34.22.31.9,0,1.2-1.35,7.97-14.29,9.15-17.92,2.13-3.06-5.9-.36-20.36-.86-27.52-.06-.93-.86-6.26-1.27-6.53-1.41.12-2.76-.38-4.13-.47-17.89-1.06-36.81.83-54.81,0-2.2,0-2.73,2.02-2.95,3.85-.93,7.94.58,17.43-.03,25.55-.4,5.32-2.23,8.9-7.92,9.67-8.24,1.13-10.92-3.38-11.71-10.87,1.24-24.61-1.6-50.75,0-75.18.35-5.33,1.79-9.96,7.82-10.57,3.48-.35,7.25-.05,9.56,2.83,4.53,5.64,1.47,23.57,2.24,31.34.1,1,.72,3.98,1.59,4.41,1.15.56,6.78.12,8.6.2,12.94.55,25.83.43,38.78-.02,1.8-.06,12.42.17,13.05-.63s1.09-3.65,1.17-4.73c.64-8.12-1.23-17.05-.41-25.19,1.08-10.73,17.54-11.49,19.19-1h.01Z"/>
  <path class="st29" d="M.8,396.11l-.8-.8v-62.35c.14-.84.4-1.1.8-.8l.45,1.88c.07,16.94.25,33.89.55,50.85.31,3.9-.02,7.64-1,11.23h0Z"/>
  <path class="st30" d="M162.35,404.1c.35.11.34.25,0,.4h-11.6c-.35-.11-.34-.25,0-.4,3.59-1.15,8.02-1.21,11.6,0Z"/>
  <path class="st25" d="M320.71,404.1c.35.11.34.25,0,.4h-7.6c-.35-.11-.34-.25,0-.4,2.34-1.14,5.27-1.18,7.6,0Z"/>
  <path class="st23" d="M168.35,404.1v.4h-6v-.4c1.86-1.15,4.11-1.12,6,0Z"/>
  <path class="st2" d="M330.31,404.1v.4h-4c-.35-.11-.34-.25,0-.4,1.17-1.15,2.82-1.12,4,0Z"/>
  <path class="st19" d="M369.9,0c.35.11.34.25,0,.4-1.17,1.14-2.82,1.12-4,0-.35-.11-.34-.25,0-.4h4Z"/>
  <path class="st15" d="M373.5,0c.35.11.34.25,0,.4-1.19.78-2.41.78-3.6,0v-.4h3.6Z"/>
  <path class="st24" d="M150.76,404.1v.4h-3.6v-.4c.82-1.14,2.8-1.19,3.6,0Z"/>
  <path class="st20" d="M326.31,404.1v.4h-3.6c-.35-.11-.34-.25,0-.4,1.23-.99,2.35-.99,3.6,0Z"/>
  <path class="st10" d="M376.7,0c.35.11.34.25,0,.4-1.03,1.08-2.18,1.09-3.2,0v-.4h3.2Z"/>
  <path class="st1" d="M365.9,0v.4c-.76,1.14-2.02,1.12-2.8,0-.35-.11-.34-.25,0-.4h2.8Z"/>
  <path class="st16" d="M.8,332.15l-.8.8v-1.2l.8-.8c.94.39.94.79,0,1.2Z"/>
  <path class="st28" d="M309.91,404.1c.35.11.34.25,0,.4h-2.4v-.4c.54-1.12,1.88-1.15,2.4,0Z"/>
  <path class="st18" d="M382.29,0v.4c-.52,1.11-1.49,1.12-2,0-.35-.11-.34-.25,0-.4h2Z"/>
  <path class="st17" d="M380.29,0v.4c-.63,1.08-1.37,1.09-2,0-.35-.11-.34-.25,0-.4h2Z"/>
  <path class="st32" d="M363.1,0v.4c-.51,1.12-1.48,1.11-2,0v-.4h2Z"/>
  <path class="st0" d="M322.71,404.1v.4h-2v-.4c.64-.78,1.36-.78,2,0Z"/>
  <path class="st12" d="M378.29,0v.4c-.59,1.01-1.01,1.01-1.6,0v-.4h1.6Z"/>
  <path class="st33" d="M311.51,404.1c.35.11.34.25,0,.4h-1.6v-.4c.5-1.08,1.1-1.09,1.6,0Z"/>
  <path class="st27" d="M313.11,404.1v.4h-1.6v-.4c.5-1.08,1.1-1.09,1.6,0Z"/>
  <path class="st13" d="M720.2,315.37c-.11.35-.25.34-.4,0-.02-.39.06-.84,0-1.2h.4v1.2Z"/>
  <path class="st6" d="M720.2,395.71c-.11.35-.25.34-.4,0,.02-.44-.13-1.01.4-1.2v1.2Z"/>
  <path class="st31" d="M720.2,396.91h-.4c.06-.35-.02-.81,0-1.2h.4v1.2Z"/>
  <path class="st7" d="M720.2,316.17c-.11.35-.25.34-.4,0-.02-.26.01-.53,0-.8h.4v.8Z"/>
  <path class="st9" d="M720.2,316.96c-.39-.11-.37-.46-.4-.8h.4v.8Z"/>
  <path class="st8" d="M.8,330.95c1.11-12.76,15.22-23.12,27.38-24,15.25-1.11,33.17-1.23,48.4.02,12.32,1.02,23.59,12.31,25.69,24.28,1.97,11.28.43,25.36.49,37.08.04,8.51,1.55,20-.49,28.25-1.75,7.05-11.82,9.55-16.68,4.5-5.79-6.01-1.86-24.53-2.8-32.77-.18-1.62-.94-3.33-2.68-3.72-2.68-.59-5.06-.06-7.5-.07-7.08,0-14.18.31-21.19.4-6.9.08-18.96,1.13-20.18-8.24-1.37-10.54,9.49-11.07,16.96-10.95,10.06.15,20.31.88,30.39-.01,2.87-.25,3.8-.44,4.16-3.44.57-4.71-.44-12.38-5.02-14.88-6.15-3.36-19.49-1.59-26.75-1.64-7.15-.06-15.11-1.06-22.19.57-5.19,1.19-8.47,5.61-8.68,10.92-.72,18.38,1.49,37,.29,55.44-.19,2.85-.51,6.06-2.58,8.21-5.06,5.24-16.26,2.81-17.01-4.81.78-21.09-1.05-42.95,0-63.95.02-.4-.03-.8,0-1.2h-.01Z"/>
  <path class="st8" d="M445.48,345.74c1.72-6.34,1.51-16.17-5.78-18.8-8.4-3.03-25.67-1.2-35.22-1.17-4.97.02-10.46-.92-15.1,1.66-4.04,2.25-5.13,5.72-5.47,10.12-1.39,18.12,1.55,38.36,0,56.37-1.11,12.93-18.17,13.34-19.91.68-1.42-10.37.24-25.05.32-35.85.06-8.04-1.04-17.96-.41-25.59.84-10.28,8.93-20.25,18.4-23.98,10.04-3.96,37.39-3.22,49-2.62,20.95,1.08,35.13,9.89,34.99,32.58-1.02,17.44,1.3,36.3-.02,53.57-.32,4.14-1.59,8.11-5.59,10-5.04,2.38-11.89.52-13.72-5.08-2.58-7.89.46-19.32-.26-27.71-.34-3.98-1.01-5.08-5-5.4-9.37-.75-20.58.81-30.42.43-3.43-.13-9.28-.22-12.2-1.79-5.49-2.96-5.74-12.05-.51-15.34.98-.62,5.35-2.06,6.33-2.06h40.59l-.02-.02Z"/>
  <path class="st8" d="M361.1.4c.66-.03,1.33.02,2,0,.93-.03,1.87.02,2.8,0,1.33-.03,2.67,0,4,0h3.6c1.06,0,2.14-.02,3.2,0,.53,0,1.07,0,1.6,0,.67.02,1.33-.02,2,0s1.34-.03,2,0c24.21,1.01,68.01,11.14,48.46,44.64-.9,1.55-5.96,8.94-7.47,8.94s-5.5-6.6-6.79-8.01c-4.92-5.38-13.78-9.55-20.49-12.29-34.67-14.14-82.01-11.89-118-3.42-19.07,4.49-36.82,11.93-53.25,22.51-.98-1.23,5.33-6.49,6.39-7.4C261.69,19.03,321.23,1.91,361.1.4Z"/>
  <path class="st8" d="M347.9,114.71c-20.09,5.83-39.19,15.65-56.51,27.26-30.6,20.5-69.17,59.65-71.85,98.46-.21,3.1.5,7.6,0,10.39-.13.69-.43,1.12-1.19,1-.83-5-2.27-9.93-2.8-14.99-1.45-14.01,1.71-29.21,6.39-42.37,15.3-43.1,57.31-83.31,99.59-99.91,1.59-.62,5.33-2.4,6.76-2.45,1.07-.04,2.77,5.08,3.41,6.24,4.08,7.37,10.23,9.17,15.2,14.38.52.55,1.05,1.18,1,1.99h0Z"/>
  <path class="st8" d="M567.92,326.23c-.33.29-1.23,6.7-1.29,7.7-1.19,18.74,1.41,38.48.44,57.19-.29,5.57-.83,10.47-7.04,12.15-6.88,1.86-12.27-2.05-12.93-9.01l-.02-65.53c.01-1.91-.75-2.77-2.61-2.99-8.36-.99-28.67,2.12-34.97-2.22-4.43-3.05-5.05-10.77-.62-14.16,3.15-2.41,8.49-2.64,12.38-2.82,22.32-1.01,48.04-.5,70.38.44,5.86.25,13.96-1.45,16.1,5.89,2.59,8.87-3.99,12.29-11.69,12.87-3.85.29-26.9-.59-28.11.48h-.02Z"/>
  <path class="st8" d="M339.1,58.36c.97,1.12-4.84,7.69-5.76,9.22-1.99,3.32-3.18,6.58-4.04,10.35-.41,1.78-1.02,8.38-1.96,9.24-12.46,3.73-24.99,7.16-37.01,12.18-35.06,14.64-85.38,47.94-91.18,88.73-.27,1.89.85,2.99-2,2.99,0-12.33,1.4-24.87,6.33-36.24,8.93-20.61,24.13-40.63,41.47-54.88,26.93-22.13,59.41-36.96,94.16-41.58h0Z"/>
  <path class="st8" d="M168.35,404.1c-1.99.04-4-.01-6,0-3.85.02-7.75.1-11.6,0-1.19-.03-2.41.05-3.6,0-9.46-.42-17.16-1.76-24.58-8.01-14.72-12.37-8.15-27.86-10.23-44.54,1.13-11.55-.88-25.5.46-36.74,1.22-10.25,17.09-11.57,19.45-.34.79,3.76.11,6.4.09,9.87-.08,14.96-.84,31.63,0,46.4.26,4.52.71,9.69,5,12.18,9.44,5.48,34.77.4,46.75,2.04,7.4,1.01,12.15,4.05,9.64,12.33-2.54,8.38-12.8,6.17-19.6,6.39-1.86.06-3.75.38-5.78.42h0Z"/>
  <path class="st8" d="M330.31,404.1c-1.33.03-2.67-.02-4,0-1.2.02-2.4,0-3.6,0h-2c-2.52,0-5.08.06-7.6,0-.53-.01-1.07.02-1.6,0s-1.07.02-1.6,0c-.8-.03-1.6.04-2.4,0-16.43-.9-29.32-8.22-33.09-25.08,1.15-20.13-1.92-42.75-.05-62.6.7-7.43,6.26-11.35,13.47-9.17,5.53,1.67,6.42,7.18,6.49,12.3.24,17.1-1.75,36.25-.43,53.19.95,12.15,11.02,12.71,21.02,12.59s23.17-1.94,33.13-.37c10.81,1.7,10.8,17.61-1.56,18.74-4.81.44-11.18.3-16.19.41h.01Z"/>
  <path class="st8" d="M385.89,127.91c-3.49,3.7-8.18,6.35-12.19,9.6-31.43,25.52-58.66,80.14-40.39,119.89,4.63,10.07,9.33,12.63,18.06,18.32,2.9,1.89-2.2,1.73-3.63,1.62-18.07-1.38-35.21-13.3-39.95-31.21-9.99-37.73,14.96-80.16,44.77-101.76,9.76-7.07,21.52-13.81,33.32-16.46h.01Z"/>
  <path class="st8" d="M385.09,43.56c-3.91-.24-7.88-.2-11.79-.4-42.35-2.17-84.39,13.03-119.26,36.29-27.06,18.05-51.74,41.7-61.49,73.63-.3.99-1.17,5.8-1.41,5.99-.11.09-.86-.05-1.19,0,.32-20.35,8.37-40.9,19.9-57.45,35.4-50.8,105.31-76.6,165.57-61.79,3.15.77,7.51,1.32,9.67,3.72h0Z"/>
  <path class="st8" d="M462.67,213.44c-1.89-11.63-17.38-17.3-27.81-16.4-4.55.39-13.53,3.78-12.41,9.62,1,5.24,9.73,5.11,13.71,7.5,4.04,2.43,5.25,7.4,11.07,6.83,2.48-.24,4.82-2.02,7.45-1.56.68,6.99-1.77,10.02-7.73,12.86-16.29,7.76-38.07,10.91-54.52,2-8.29-4.49-12.67-11.56-10.26-21.19,6.57-26.27,70.52-33.97,81.11-9.66.92,2.11,2.34,9.38-.6,9.99h-.01Z"/>
  <path class="st8" d="M379.49,121.91c.37.5-2.52,1.88-2.93,2.06-3.52,1.57-7.67,2.69-11.34,4.26-38.35,16.42-78.07,49.22-95.37,87.73-5.4,12.03-10.06,26.26-8.28,39.59.69,5.16,2.95,9.91,3.15,15.04h-1.18c-2.37-6.65-5.41-12.71-6.36-19.84-7.26-54.39,42.98-107.86,88.32-130.26,2.07-1.02,7.76-3.78,9.8-3.79,2.71-.02,10.36,2.76,13.73,3.48s6.96,1.23,10.47,1.73h-.01Z"/>
  <path class="st8" d="M447.88,139.1c-15.31-.07-30.02,3.9-43.73,10.45-15.35,7.33-31.7,20.29-40.81,34.75-.47.74-4.24,8.9-5.43,7.56-.36-8.44,1.22-15.91,4.61-23.57,5.57-12.56,19.12-27.09,30.61-34.55,4.86-3.15,10.17-5.7,15.16-8.63-2.97-4.25-8.53-6.56-13.21-8.57-1.61-.69-9.51-3.38-9.99-4-.27-.36-.64-.47,0-.81.7-.38,5.1-.94,6.19-1.01,15.48-1,33.43,3.22,46.09,12.32,4.94,3.55,11.64,9.33,10.51,16.08v-.02Z"/>
  <path class="st8" d="M484.57,307.08c3.97-.59,8.27.02,10.67,3.52,1.44,2.11,1.7,5.6,1.84,8.15.75,13.35-.39,27.06-.44,40.37-.04,10.82,1.2,23.07.41,33.59-.11,1.45-.48,3.7-.91,5.09-2.85,9.29-18.22,7.12-19.1-2.67.31-21.58-.17-43.23-.4-64.75-.07-6.98-1.51-21.89,7.92-23.29h0Z"/>
  <path class="st8" d="M500.26,175.87c18.72,1.84,5.49-22.4.72-30.1-5.83-9.42-14.15-19.8-23.03-26.34.94-9.54-2.7-15.88-8.49-22.89-12.92-15.65-41.59-33.19-60.87-39.49-1.74-.57-4.21-.78-5.73-1.47-.6-.27-1.12-.41-.97-1.23,12.14,1.2,24.06,6.06,35.06,11.12,12.03,5.53,23.7,12.89,34.08,21.1,6.89,5.45,22.54,17.94,18.83,27.93-.55,1.49-2.94,2.47-2.21,3.81.27.5,6.08,4.29,7.21,5.2,14.26,11.58,32.28,41.43,30.62,60.16-.59,6.63-6.26,6.38-11.21,4.37-3.39-1.37-10.5-7.09-12.82-9.97-.52-.65-1.26-1.27-1.19-2.21h0Z"/>
  <path class="st8" d="M380.69,185.86c-.44.34-.62.14-.4-.4,10.13-13.83,26.95-25.28,43.09-31.08,10.68-3.83,38.83-9.08,39.31,8.89.05,1.7-1.48,9.24-3.09,9.76-.85.27-7.76-3.14-9.42-3.67-18.62-5.92-40.74-.42-57.37,8.84-4.19,2.33-7.88,5.45-12.13,7.66h.01Z"/>
  <path class="st8" d="M241.53,143.1c.17.75-.43.95-.8,1.4-3.57,4.36-7.67,7.5-11.12,12.46-19.27,27.65-27.81,74.15-11.34,104.72.77,1.42,1.9,2.68,2.67,4.12.31.58,1.2,1.78.8,2.4-4.33-2.71-8.07-7.66-10.77-12.02-21.42-34.59-9.57-82.93,21.17-107.88,1.22-.99,8.2-6.25,9.38-5.2h0Z"/>
  <path class="st8" d="M274.32,167.88c-22.21,26.48-30.77,71.82-16.34,103.67,3.27,7.2,8.04,12.09,12.74,18.24-1.96.28-2.75-1.81-4.03-2.56-2.84-1.68-3.58-1.01-6.38-4.02-21.24-22.78-23.56-58.39-10.86-86.02,5-10.88,14.64-23.43,24.86-29.71v.4h.01Z"/>
  <path class="st8" d="M361.9,107.12c-.14-.13.32-1.45.46-1.54.22-.14,4.08-.33,5.22-.58,6.76-1.49,15.71-6.43,12.9-14.66-3.68-10.79-27.18-8.96-33.31-.94-1.67,2.18-1.35,5.31-4.06,5.73-5.95-16.44,8.83-27.66,24.21-26.8,13.42.75,26.13,10.6,21.66,25.29-1.92,6.32-12.39,13.5-18.88,13.5h-8.2,0Z"/>
  <path class="st8" d="M405.89,87.93c11.75,8.75,41.37,25.24,56.01,22.21,1.19-.25,5.08-2.66,5.58-2.43,2.22.99,4.49,5.57,2.79,8.01-1.54,2.22-3.65,1.44-2.43,5.36-3.25,1.6-3.54-.62-5.28-1.65-3.83-2.28-13.87,2.77-20.03-.77-3.45-1.98-1.21-4.61-.67-7.51-10.98-5.06-23.67-11.44-32.97-19.22-1.01-.85-3.54-2.84-3.81-3.99-.23-.11-.22-.24,0-.4.04-.04.26.01.4,0l.4.4h.01Z"/>
  <path class="st8" d="M510.98,190.36c5.83-.51,2.69,4.04.29,6.3-4.62,4.35-20.26,13.92-26.45,13.94-1.29,0-3.66-.92-2.14-2.15.76-.61,4.17-1.81,5.45-2.54,2.96-1.68,6.48-3.94,9.12-6.07,5.39-4.37,5.74-8.78,13.72-9.48h.01Z"/>
  <path class="st5" d="M477.87,193.45c-2.31.1-2.79-2.56-3.83-3.96-1.91-2.57-4.21-5.71-6.35-8.04-1.02-1.11-2.58-1.6-3.01-3.18,7.31.34,12.64,8.44,13.19,15.18h0Z"/>
  <path class="st26" d="M485.06,192.26c-.66.07-1.35-.36-1.77-.82-.9-.98-2.44-4.31-3.67-5.93-2.32-3.06-5.32-5.29-7.36-8.43,6.99.43,12.61,8.54,12.79,15.18h0Z"/>
  <path class="st14" d="M459.47,180.27c4.17.83,10.87,7.54,10.42,11.8-.04.41-.21,1.38-.63,1.38s-3.05-4.4-3.63-5.15c-.72-.93-6.74-7.44-6.16-8.03h0Z"/>
  <path class="st3" d="M380.69,185.86l-.2.4c-.62.09-.68.03-.59-.59l.4-.2.4.4h0Z"/>
  <path class="st22" d="M274.32,167.88v-.4c.65-.4.83-.38,0,.4Z"/>
  <path class="st11" d="M405.09,87.54s-.02.31,0,.4c-.52.03-.61-.75-.2-.8l.2.4Z"/>
  <path class="st4" d="M405.89,87.93c-.15-.11-.27-.26-.4-.4.08,0,.28.3.4.4Z"/>
</svg>