<?xml version="1.0" encoding="UTF-8"?>
<svg id="Layer_1" data-name="Layer 1" xmlns="http://www.w3.org/2000/svg" viewBox="0 0 358.2 319">
  <defs>
    <style>
      .cls-1 {
        fill: #c5bcc8;
      }

      .cls-2 {
        fill: #698ba2;
      }

      .cls-3 {
        fill: #695e7c;
      }

      .cls-4 {
        fill: #1a3158;
      }

      .cls-5 {
        fill: #183057;
      }

      .cls-6 {
        fill: #8691a5;
      }

      .cls-7 {
        fill: #7c7e95;
      }

      .cls-8 {
        fill: #a9a7b8;
      }

      .cls-9 {
        fill: #1b3259;
      }

      .cls-10 {
        fill: #667590;
      }

      .cls-11 {
        fill: #ccc0cb;
      }

      .cls-12 {
        fill: #ece1e6;
      }

      .cls-13 {
        fill: #8b94a8;
      }

      .cls-14 {
        fill: #fefefe;
      }

      .cls-15 {
        fill: #807d95;
      }

      .cls-16 {
        fill: #1a3258;
      }

      .cls-17 {
        fill: #eadde4;
      }
    </style>
  </defs>
  <path class="cls-14" d="M176.5,13c.18.08.17.19,0,.3-.17.17-.34.32-.53.44-.19.12-.36.21-.54.24-6.88,1.03-13.09,2-19.9,4.3-16.67,5.63-34.76,15.58-47.09,33.18,13.29-12.77,28.95-18.58,44.52-20.58,14.92-1.92,31-.48,44.62,9.21,4.86,3.46,7.39,7.25,10.36,13.17,2.97-4.32,5.7-11,5.84-17.57.34-16.32-17.85-21.28-26.11-21.75l-.44-.64c-.18-.08-.17-.19,0-.3h170.78v237.66c-.06.26-.13.26-.2,0l-.46-.41c-1.71-7.98-9.67-5.01-8.93,3.45.2,5.68.3,11.35.29,17.02-.05,1.3-.29,3.88-1.26,4.12-9.86.67-20.59.94-30.46.08-1.12-1-1.11-5.46-1.08-7.26.34-5.79.28-11.5-.18-17.14-.75-6.56-7.97-6.6-8.65.17-.51,4.99-.5,10.46-.47,15.61.33,14.6.41,29.19.25,43.78-.17,10.73,9.68,10.37,9.16-.23-.15-6.14-.16-12.27-.02-18.38.13-1.61.53-3.13,1.74-3.3,7.71.1,15.43.02,23.15-.25.68,0,6.26.08,6.91.7.8.76.98,6.58.93,8.08-.38,5.39-.4,10.74-.06,16.06.71,6.35,7.38,6.77,8.66.85l.46-.33c.06-.26.13-.26.2,0v5.74h-197.05c-.18-.08-.17-.19,0-.3l.62-.62c2.58.05,5.17-.06,7.73-.32,5.33-.92,5.75-11.45.56-12.94-5.29-.57-10.6-.48-15.92.27-6.57.27-12.21-.69-11.91-13.06-.01-12.68.1-25.34.33-37.99-.06-4.85-1.18-8.34-4.76-8.45-4.47-.14-4.85,7.41-4.76,12.66.06,12.19.19,24.39.39,36.58-1.05,13.68,7.07,22.78,15.53,23.21l.67.67c.18.08.17.19,0,.3h-70.33c-.18-.08-.17-.19,0-.3l.53-.64c2.15-.3,4.29-.36,6.42-.2,7.89.41,7.87-14.12-.39-13.22-5.82.31-11.65.46-17.48.45-6.63-.88-7.68-4.61-7.75-13.78-.1-12.41-.18-24.99.22-37.27.71-9.86-8.39-11.92-9.26-2.2-.17,7.94-.18,15.9-.04,23.86,0,0,0,6.34-.01,19.02-.54,14.27,7.35,23.44,16.44,23.33l.61.65c.18.08.17.19,0,.3H-6v-6.95c.16-.47.29-.26.4.61l.44.38c1.56,7.03,8.74,6.41,9-1.83.17-5.45.23-10.75.2-16.26-.22-8.56-.37-17.1-.31-25.66.07-8.83,4.21-10.89,9.54-10.7,5.2.21,10.38.22,15.55.03,4.51.46,6.68,2,7.37,9,.74,7.59-.81,7.74-5.52,7.81-5.26-.19-10.45-.22-15.57-.08-6.66.21-6.65,12.48-.08,13,6,.26,12.05.16,18.17-.33,3.27-.32,3.25,3.94,3.12,7.66-.23,4.55-.3,9.1-.21,13.65-.08,12.39,10.22,10.67,9.65-1.03-.17-12.06-.16-24.14.03-36.26-.15-8-.73-13.87-4.55-19.73-2.86-4.4-5.84-6.26-9.92-6.62-7.75-.69-15.28-.61-23.03.14-5.89.57-12.47,7.87-13.41,16.89l-.45.66c-.07.64-.21.84-.4.61V13h182.5-.01Z"/>
  <path class="cls-13" d="M188.9,13c.35.11.34.25,0,.4-1.17,1.14-2.82,1.12-4,0-.35-.11-.34-.25,0-.4h4Z"/>
  <path class="cls-10" d="M192.5,13c.35.11.34.25,0,.4-1.19.78-2.41.78-3.6,0v-.4h3.6Z"/>
  <path class="cls-6" d="M195.7,13c.35.11.34.25,0,.4-1.03,1.08-2.18,1.09-3.2,0v-.4h3.2Z"/>
  <path class="cls-1" d="M184.9,13v.4c-.76,1.14-2.02,1.12-2.8,0-.35-.11-.34-.25,0-.4h2.8Z"/>
  <path class="cls-12" d="M201.29,13v.4c-.52,1.11-1.49,1.12-2,0-.35-.11-.34-.25,0-.4h2Z"/>
  <path class="cls-11" d="M199.29,13v.4c-.63,1.08-1.37,1.09-2,0-.35-.11-.34-.25,0-.4h2Z"/>
  <path class="cls-17" d="M182.1,13v.4c-.51,1.12-1.48,1.11-2,0v-.4h2Z"/>
  <path class="cls-8" d="M197.29,13v.4c-.59,1.01-1.01,1.01-1.6,0v-.4h1.6Z"/>
  <path class="cls-5" d="M180.1,13.4c.66-.03,1.33.02,2,0,.93-.03,1.87.02,2.8,0,1.33-.03,2.67,0,4,0h3.6c1.06,0,2.14-.02,3.2,0,.53,0,1.07,0,1.6,0,.67.02,1.33-.02,2,0s1.34-.03,2,0c24.21,1.01,68.01,11.14,48.46,44.64-.9,1.55-5.96,8.94-7.47,8.94s-5.5-6.6-6.79-8.01c-4.92-5.38-13.78-9.55-20.49-12.29-34.67-14.14-82.01-11.89-118-3.42-19.07,4.49-36.82,11.93-53.25,22.51-.98-1.23,5.33-6.49,6.39-7.4,30.54-26.34,90.08-43.46,129.95-44.97Z"/>
  <path class="cls-5" d="M166.9,127.71c-20.09,5.83-39.19,15.65-56.51,27.26-30.6,20.5-69.17,59.65-71.85,98.46-.21,3.1.5,7.6,0,10.39-.13.69-.43,1.12-1.19,1-.83-5-2.27-9.93-2.8-14.99-1.45-14.01,1.71-29.21,6.39-42.37,15.3-43.1,57.31-83.31,99.59-99.91,1.59-.62,5.33-2.4,6.76-2.45,1.07-.04,2.77,5.08,3.41,6.24,4.08,7.37,10.23,9.17,15.2,14.38.52.55,1.05,1.18,1,1.99h0Z"/>
  <path class="cls-5" d="M158.1,71.36c.97,1.12-4.84,7.69-5.76,9.22-1.99,3.32-3.18,6.58-4.04,10.35-.41,1.78-1.02,8.38-1.96,9.24-12.46,3.73-24.99,7.16-37.01,12.18-35.06,14.64-85.38,47.94-91.18,88.73-.27,1.89.85,2.99-2,2.99,0-12.33,1.4-24.87,6.33-36.24,8.93-20.61,24.13-40.63,41.47-54.88,26.93-22.13,59.41-36.96,94.16-41.58h0Z"/>
  <path class="cls-5" d="M204.89,140.91c-3.49,3.7-8.18,6.35-12.19,9.6-31.43,25.52-58.66,80.14-40.39,119.89,4.63,10.07,9.33,12.63,18.06,18.32,2.9,1.89-2.2,1.73-3.63,1.62-18.07-1.38-35.21-13.3-39.95-31.21-9.99-37.73,14.96-80.16,44.77-101.76,9.76-7.07,21.52-13.81,33.32-16.46h.01Z"/>
  <path class="cls-5" d="M204.09,56.56c-3.91-.24-7.88-.2-11.79-.4-42.35-2.17-84.39,13.03-119.26,36.29-27.06,18.05-51.74,41.7-61.49,73.63-.3.99-1.17,5.8-1.41,5.99-.11.09-.86-.05-1.19,0,.32-20.35,8.37-40.9,19.9-57.45,35.4-50.8,105.31-76.6,165.57-61.79,3.15.77,7.51,1.32,9.67,3.72h0Z"/>
  <path class="cls-5" d="M281.67,226.44c-1.89-11.63-17.38-17.3-27.81-16.4-4.55.39-13.53,3.78-12.41,9.62,1,5.24,9.73,5.11,13.71,7.5,4.04,2.43,5.25,7.4,11.07,6.83,2.48-.24,4.82-2.02,7.45-1.56.68,6.99-1.77,10.02-7.73,12.86-16.29,7.76-38.07,10.91-54.52,2-8.29-4.49-12.67-11.56-10.26-21.19,6.57-26.27,70.52-33.97,81.11-9.66.92,2.11,2.34,9.38-.6,9.99h-.01Z"/>
  <path class="cls-5" d="M198.49,134.91c.37.5-2.52,1.88-2.93,2.06-3.52,1.57-7.67,2.69-11.34,4.26-38.35,16.42-78.07,49.22-95.37,87.73-5.4,12.03-10.06,26.26-8.28,39.59.69,5.16,2.95,9.91,3.15,15.04h-1.18c-2.37-6.65-5.41-12.71-6.36-19.84-7.26-54.39,42.98-107.86,88.32-130.26,2.07-1.02,7.76-3.78,9.8-3.79,2.71-.02,10.36,2.76,13.73,3.48s6.96,1.23,10.47,1.73h-.01Z"/>
  <path class="cls-5" d="M266.88,152.1c-15.31-.07-30.02,3.9-43.73,10.45-15.35,7.33-31.7,20.29-40.81,34.75-.47.74-4.24,8.9-5.43,7.56-.36-8.44,1.22-15.91,4.61-23.57,5.57-12.56,19.12-27.09,30.61-34.55,4.86-3.15,10.17-5.7,15.16-8.63-2.97-4.25-8.53-6.56-13.21-8.57-1.61-.69-9.51-3.38-9.99-4-.27-.36-.64-.47,0-.81.7-.38,5.1-.94,6.19-1.01,15.48-1,33.43,3.22,46.09,12.32,4.94,3.55,11.64,9.33,10.51,16.08v-.02Z"/>
  <path class="cls-5" d="M319.26,188.87c18.72,1.84,5.49-22.4.72-30.1-5.83-9.42-14.15-19.8-23.03-26.34.94-9.54-2.7-15.88-8.49-22.89-12.92-15.65-41.59-33.19-60.87-39.49-1.74-.57-4.21-.78-5.73-1.47-.6-.27-1.12-.41-.97-1.23,12.14,1.2,24.06,6.06,35.06,11.12,12.03,5.53,23.7,12.89,34.08,21.1,6.89,5.45,22.54,17.94,18.83,27.93-.55,1.49-2.94,2.47-2.21,3.81.27.5,6.08,4.29,7.21,5.2,14.26,11.58,32.28,41.43,30.62,60.16-.59,6.63-6.26,6.38-11.21,4.37-3.39-1.37-10.5-7.09-12.82-9.97-.52-.65-1.26-1.27-1.19-2.21h0Z"/>
  <path class="cls-5" d="M199.69,198.86c-.44.34-.62.14-.4-.4,10.13-13.83,26.95-25.28,43.09-31.08,10.68-3.83,38.83-9.08,39.31,8.89.05,1.7-1.48,9.24-3.09,9.76-.85.27-7.76-3.14-9.42-3.67-18.62-5.92-40.74-.42-57.37,8.84-4.19,2.33-7.88,5.45-12.13,7.66h.01Z"/>
  <path class="cls-5" d="M60.53,156.1c.17.75-.43.95-.8,1.4-3.57,4.36-7.67,7.5-11.12,12.46-19.27,27.65-27.81,74.15-11.34,104.72.77,1.42,1.9,2.68,2.67,4.12.31.58,1.2,1.78.8,2.4-4.33-2.71-8.07-7.66-10.77-12.02-21.42-34.59-9.57-82.93,21.17-107.88,1.22-.99,8.2-6.25,9.38-5.2h0Z"/>
  <path class="cls-5" d="M93.32,180.88c-22.21,26.48-30.77,71.82-16.34,103.67,3.27,7.2,8.04,12.09,12.74,18.24-1.96.28-2.75-1.81-4.03-2.56-2.84-1.68-3.58-1.01-6.38-4.02-21.24-22.78-23.56-58.39-10.86-86.02,5-10.88,14.64-23.43,24.86-29.71v.4h.01Z"/>
  <path class="cls-5" d="M180.9,120.12c-.14-.13.32-1.45.46-1.54.22-.14,4.08-.33,5.22-.58,6.76-1.49,15.71-6.43,12.9-14.66-3.68-10.79-27.18-8.96-33.31-.94-1.67,2.18-1.35,5.31-4.06,5.73-5.95-16.44,8.83-27.66,24.21-26.8,13.42.75,26.13,10.6,21.66,25.29-1.92,6.32-12.39,13.5-18.88,13.5h-8.2,0Z"/>
  <path class="cls-5" d="M224.89,100.93c11.75,8.75,41.37,25.24,56.01,22.21,1.19-.25,5.08-2.66,5.58-2.43,2.22.99,4.49,5.57,2.79,8.01-1.54,2.22-3.65,1.44-2.43,5.36-3.25,1.6-3.54-.62-5.28-1.65-3.83-2.28-13.87,2.77-20.03-.77-3.45-1.98-1.21-4.61-.67-7.51-10.98-5.06-23.67-11.44-32.97-19.22-1.01-.85-3.54-2.84-3.81-3.99-.23-.11-.22-.24,0-.4.04-.04.26.01.4,0l.4.4h.01Z"/>
  <path class="cls-5" d="M329.98,203.36c5.83-.51,2.69,4.04.29,6.3-4.62,4.35-20.26,13.92-26.45,13.94-1.29,0-3.66-.92-2.14-2.15.76-.61,4.17-1.81,5.45-2.54,2.96-1.68,6.48-3.94,9.12-6.07,5.39-4.37,5.74-8.78,13.72-9.48h.01Z"/>
  <path class="cls-4" d="M296.87,206.45c-2.31.1-2.79-2.56-3.83-3.96-1.91-2.57-4.21-5.71-6.35-8.04-1.02-1.11-2.58-1.6-3.01-3.18,7.31.34,12.64,8.44,13.19,15.18h0Z"/>
  <path class="cls-16" d="M304.06,205.26c-.66.07-1.35-.36-1.77-.82-.9-.98-2.44-4.31-3.67-5.93-2.32-3.06-5.32-5.29-7.36-8.43,6.99.43,12.61,8.54,12.79,15.18h0Z"/>
  <path class="cls-9" d="M278.47,193.27c4.17.83,10.87,7.54,10.42,11.8-.04.41-.21,1.38-.63,1.38s-3.05-4.4-3.63-5.15c-.72-.93-6.74-7.44-6.16-8.03h0Z"/>
  <path class="cls-2" d="M199.69,198.86l-.2.4c-.62.09-.68.03-.59-.59l.4-.2.4.4h0Z"/>
  <path class="cls-15" d="M93.32,180.88v-.4c.65-.4.83-.38,0,.4Z"/>
  <path class="cls-7" d="M224.09,100.54s-.02.31,0,.4c-.52.03-.61-.75-.2-.8l.2.4Z"/>
  <path class="cls-3" d="M224.89,100.93c-.15-.11-.27-.26-.4-.4.08,0,.28.3.4.4Z"/>
</svg>

